<svg xmlns="http://www.w3.org/2000/svg" viewBox="0 0 1200 630" fill="none">
  <rect width="1200" height="630" fill="#111111"/>
  <rect x="40" y="40" width="1120" height="550" rx="16" fill="#202020" stroke="#DC2626" stroke-opacity="0.15"/>
  <text x="100" y="100" fill="#DC2626" font-family="sans-serif" font-size="28" font-weight="700">Company Profile</text>
  <text x="100" y="135" fill="rgba(255,255,255,0.5)" font-family="sans-serif" font-size="16">Hiring activity and market position</text>
  <rect x="80" y="170" width="500" height="120" rx="10" fill="#111111" stroke="#DC2626" stroke-opacity="0.1"/>
  <circle cx="140" cy="230" r="30" fill="#DC2626" opacity="0.2" stroke="#DC2626" stroke-width="2"/>
  <rect x="190" y="210" width="200" height="14" rx="4" fill="#FFFFFF" opacity="0.3"/>
  <rect x="190" y="240" width="300" height="10" rx="3" fill="#FFFFFF" opacity="0.12"/>
  <rect x="620" y="170" width="500" height="120" rx="10" fill="#111111" stroke="#B91C1C" stroke-opacity="0.1"/>
  <text x="640" y="210" fill="#B91C1C" font-family="monospace" font-size="24" font-weight="700">12</text>
  <text x="640" y="235" fill="rgba(255,255,255,0.5)" font-family="sans-serif" font-size="13">Open roles</text>
  <text x="820" y="210" fill="#DC2626" font-family="monospace" font-size="24" font-weight="700">$165K</text>
  <text x="820" y="235" fill="rgba(255,255,255,0.5)" font-family="sans-serif" font-size="13">Avg salary</text>
  <rect x="80" y="320" width="1040" height="180" rx="10" fill="#111111"/>
  <rect x="100" y="350" width="700" height="10" rx="4" fill="#DC2626" opacity="0.3"/>
  <rect x="100" y="380" width="550" height="10" rx="4" fill="#DC2626" opacity="0.2"/>
  <rect x="100" y="410" width="400" height="10" rx="4" fill="#B91C1C" opacity="0.15"/>
  <text x="1060" y="560" text-anchor="end" fill="rgba(255,255,255,0.5)" font-family="monospace" font-size="11" opacity="0.5">senablers.com</text>
</svg>