<svg xmlns="http://www.w3.org/2000/svg" viewBox="0 0 1200 630" fill="none">
  <rect width="1200" height="630" fill="#111111"/>
  <rect x="40" y="40" width="1120" height="550" rx="16" fill="#202020" stroke="#DC2626" stroke-opacity="0.15"/>
  <text x="100" y="100" fill="#DC2626" font-family="sans-serif" font-size="28" font-weight="700">Head-to-Head Comparison</text>
  <text x="100" y="135" fill="rgba(255,255,255,0.5)" font-family="sans-serif" font-size="16">Feature-by-feature analysis</text>
  <rect x="320" y="175" width="16" height="16" rx="3" fill="#DC2626" opacity="0.8"/>
  <text x="344" y="188" fill="rgba(255,255,255,0.5)" font-family="sans-serif" font-size="13">Option A</text>
  <rect x="520" y="175" width="16" height="16" rx="3" fill="#B91C1C" opacity="0.7"/>
  <text x="544" y="188" fill="rgba(255,255,255,0.5)" font-family="sans-serif" font-size="13">Option B</text>
  <text x="100" y="240" fill="#FFFFFF" font-family="sans-serif" font-size="14">Features</text>
  <rect x="320" y="228" width="200" height="18" rx="4" fill="#DC2626" opacity="0.7"/>
  <rect x="520" y="228" width="160" height="18" rx="4" fill="#B91C1C" opacity="0.5"/>
  <text x="100" y="290" fill="#FFFFFF" font-family="sans-serif" font-size="14">Pricing</text>
  <rect x="320" y="278" width="150" height="18" rx="4" fill="#DC2626" opacity="0.5"/>
  <rect x="520" y="278" width="220" height="18" rx="4" fill="#B91C1C" opacity="0.7"/>
  <text x="100" y="340" fill="#FFFFFF" font-family="sans-serif" font-size="14">Ease of Use</text>
  <rect x="320" y="328" width="240" height="18" rx="4" fill="#DC2626" opacity="0.8"/>
  <rect x="520" y="328" width="180" height="18" rx="4" fill="#B91C1C" opacity="0.6"/>
  <text x="100" y="390" fill="#FFFFFF" font-family="sans-serif" font-size="14">Support</text>
  <rect x="320" y="378" width="180" height="18" rx="4" fill="#DC2626" opacity="0.6"/>
  <rect x="520" y="378" width="200" height="18" rx="4" fill="#B91C1C" opacity="0.65"/>
  <text x="1060" y="560" text-anchor="end" fill="rgba(255,255,255,0.5)" font-family="monospace" font-size="11" opacity="0.5">senablers.com</text>
</svg>