<svg xmlns="http://www.w3.org/2000/svg" viewBox="0 0 1200 630" fill="none">
  <rect width="1200" height="630" fill="#111111"/>
  <rect x="40" y="40" width="1120" height="550" rx="16" fill="#202020" stroke="#DC2626" stroke-opacity="0.15"/>
  <text x="100" y="100" fill="#DC2626" font-family="sans-serif" font-size="28" font-weight="700">Glossary</text>
  <text x="100" y="135" fill="rgba(255,255,255,0.5)" font-family="sans-serif" font-size="16">Key terms and definitions</text>
  <rect x="80" y="170" width="1040" height="70" rx="8" fill="#111111" stroke="#DC2626" stroke-opacity="0.1"/>
  <rect x="100" y="190" width="200" height="12" rx="4" fill="#DC2626" opacity="0.6"/>
  <rect x="340" y="190" width="600" height="12" rx="4" fill="#FFFFFF" opacity="0.15"/>
  <rect x="80" y="260" width="1040" height="70" rx="8" fill="#111111"/>
  <rect x="100" y="280" width="180" height="12" rx="4" fill="#B91C1C" opacity="0.5"/>
  <rect x="340" y="280" width="550" height="12" rx="4" fill="#FFFFFF" opacity="0.12"/>
  <rect x="80" y="350" width="1040" height="70" rx="8" fill="#111111" stroke="#DC2626" stroke-opacity="0.06"/>
  <rect x="100" y="370" width="220" height="12" rx="4" fill="#DC2626" opacity="0.5"/>
  <rect x="340" y="370" width="480" height="12" rx="4" fill="#FFFFFF" opacity="0.12"/>
  <rect x="80" y="440" width="1040" height="70" rx="8" fill="#111111"/>
  <rect x="100" y="460" width="160" height="12" rx="4" fill="#B91C1C" opacity="0.45"/>
  <rect x="340" y="460" width="520" height="12" rx="4" fill="#FFFFFF" opacity="0.1"/>
  <text x="1060" y="560" text-anchor="end" fill="rgba(255,255,255,0.5)" font-family="monospace" font-size="11" opacity="0.5">senablers.com</text>
</svg>