<svg xmlns="http://www.w3.org/2000/svg" viewBox="0 0 1200 630" fill="none">
  <rect width="1200" height="630" fill="#111111"/>
  <rect x="40" y="40" width="1120" height="550" rx="16" fill="#202020" stroke="#DC2626" stroke-opacity="0.15"/>
  <text x="100" y="100" fill="#DC2626" font-family="sans-serif" font-size="28" font-weight="700">Resources</text>
  <text x="100" y="135" fill="rgba(255,255,255,0.5)" font-family="sans-serif" font-size="16">Curated guides, templates, and frameworks</text>
  <rect x="80" y="170" width="510" height="80" rx="8" fill="#111111" stroke="#DC2626" stroke-opacity="0.1"/>
  <rect x="100" y="195" width="300" height="12" rx="4" fill="#DC2626" opacity="0.4"/>
  <rect x="100" y="218" width="400" height="8" rx="3" fill="#FFFFFF" opacity="0.1"/>
  <rect x="610" y="170" width="510" height="80" rx="8" fill="#111111" stroke="#B91C1C" stroke-opacity="0.1"/>
  <rect x="630" y="195" width="280" height="12" rx="4" fill="#B91C1C" opacity="0.35"/>
  <rect x="630" y="218" width="380" height="8" rx="3" fill="#FFFFFF" opacity="0.1"/>
  <rect x="80" y="270" width="510" height="80" rx="8" fill="#111111"/>
  <rect x="100" y="295" width="260" height="12" rx="4" fill="#DC2626" opacity="0.3"/>
  <rect x="100" y="318" width="350" height="8" rx="3" fill="#FFFFFF" opacity="0.1"/>
  <rect x="610" y="270" width="510" height="80" rx="8" fill="#111111"/>
  <rect x="630" y="295" width="320" height="12" rx="4" fill="#B91C1C" opacity="0.3"/>
  <rect x="630" y="318" width="400" height="8" rx="3" fill="#FFFFFF" opacity="0.1"/>
  <text x="1060" y="560" text-anchor="end" fill="rgba(255,255,255,0.5)" font-family="monospace" font-size="11" opacity="0.5">senablers.com</text>
</svg>