<svg xmlns="http://www.w3.org/2000/svg" viewBox="0 0 1200 630" fill="none">
  <rect width="1200" height="630" fill="#111111"/>
  <rect x="40" y="40" width="1120" height="550" rx="16" fill="#202020" stroke="#DC2626" stroke-opacity="0.15"/>
  <text x="100" y="100" fill="#DC2626" font-family="sans-serif" font-size="28" font-weight="700">Curated Picks</text>
  <text x="100" y="135" fill="rgba(255,255,255,0.5)" font-family="sans-serif" font-size="16">Top-rated tools and resources</text>
  <rect x="80" y="170" width="340" height="150" rx="10" fill="#111111" stroke="#DC2626" stroke-opacity="0.2"/>
  <circle cx="120" cy="210" r="16" fill="#DC2626" opacity="0.2" stroke="#DC2626" stroke-width="2"/>
  <text x="120" y="215" text-anchor="middle" fill="#DC2626" font-family="sans-serif" font-size="14" font-weight="700">1</text>
  <rect x="150" y="200" width="200" height="12" rx="3" fill="#FFFFFF" opacity="0.3"/>
  <rect x="150" y="224" width="240" height="8" rx="3" fill="#FFFFFF" opacity="0.12"/>
  <rect x="440" y="170" width="340" height="150" rx="10" fill="#111111" stroke="#B91C1C" stroke-opacity="0.15"/>
  <circle cx="480" cy="210" r="16" fill="#B91C1C" opacity="0.2" stroke="#B91C1C" stroke-width="2"/>
  <text x="480" y="215" text-anchor="middle" fill="#B91C1C" font-family="sans-serif" font-size="14" font-weight="700">2</text>
  <rect x="510" y="200" width="200" height="12" rx="3" fill="#FFFFFF" opacity="0.3"/>
  <rect x="510" y="224" width="220" height="8" rx="3" fill="#FFFFFF" opacity="0.12"/>
  <rect x="800" y="170" width="340" height="150" rx="10" fill="#111111" stroke="#FFFFFF" stroke-opacity="0.08"/>
  <circle cx="840" cy="210" r="16" fill="#FFFFFF" opacity="0.1" stroke="#FFFFFF" stroke-opacity="0.2" stroke-width="2"/>
  <text x="840" y="215" text-anchor="middle" fill="#FFFFFF" font-family="sans-serif" font-size="14" font-weight="600" opacity="0.5">3</text>
  <rect x="870" y="200" width="200" height="12" rx="3" fill="#FFFFFF" opacity="0.2"/>
  <rect x="870" y="224" width="200" height="8" rx="3" fill="#FFFFFF" opacity="0.08"/>
  <text x="1060" y="560" text-anchor="end" fill="rgba(255,255,255,0.5)" font-family="monospace" font-size="11" opacity="0.5">senablers.com</text>
</svg>